<?xml version="1.0" encoding="UTF-8"?>
<svg xmlns="http://www.w3.org/2000/svg" width="1000" height="1000" viewBox="0 0 1000 1000">
  <title>Škoda Elroq monochrome line trace</title>
  <desc>Black line SVG on a transparent 1000x1000 canvas.</desc>
  <g fill="none" stroke="#000000" stroke-width="8" stroke-linecap="round" stroke-linejoin="round">
    <path d="M 263.5,291.5 L 145.5,320.5 L 103.5,381.5 L 226.5,399.5 L 213.5,423.5 L 68.5,424.5 L 348.5,415.5 L 216.5,431.5 L 386.5,406.5 L 379.5,435.5 L 453.5,430.5 L 381.5,439.5 L 540.5,441.5 L 401.5,485.5 L 117.5,438.5 L 375.5,477.5 L 374.5,599.5 L 376.5,481.5 L 459.5,456.5 L 528.5,514.5 L 553.5,615.5 L 630.5,615.5 L 729.5,524.5 L 915.5,517.5 L 966.5,602.5 L 915.5,517.5 L 728.5,524.5 L 629.5,615.5 L 554.5,615.5 L 473.5,458.5 L 925.5,491.5 L 947.5,454.5 L 352.5,417.5 L 277.5,383.5 L 365.5,394.5 L 372.5,341.5 L 419.5,392.5 L 378.5,401.5 L 425.5,391.5 L 339.5,304.5 L 264.5,291.5"/>
    <path d="M 439.5,289.5 L 352.5,294.5 L 445.5,388.5 L 427.5,393.5 L 771.5,391.5 L 447.5,390.5 L 354.5,294.5 L 619.5,304.5 L 527.5,294.5 L 623.5,305.5 L 771.5,389.5 L 599.5,296.5 L 440.5,289.5"/>
    <path d="M 277.5,296.5 L 320.5,301.5 L 372.5,341.5 L 365.5,394.5 L 364.5,384.5 L 353.5,393.5 L 277.5,382.5 L 279.5,397.5 L 219.5,398.5 L 262.5,396.5 L 247.5,395.5 L 264.5,300.5 L 297.5,298.5 L 264.5,300.5 L 247.5,395.5 L 132.5,395.5 L 160.5,393.5 L 154.5,384.5 L 174.5,316.5 L 153.5,392.5 L 110.5,383.5 L 149.5,322.5 L 255.5,297.5 L 234.5,392.5 L 249.5,312.5 L 262.5,296.5 L 245.5,393.5 L 261.5,301.5 L 276.5,296.5"/>
    <path d="M 445.5,459.5 L 418.5,474.5 L 391.5,511.5 L 380.5,550.5 L 377.5,601.5 L 135.5,565.5 L 113.5,496.5 L 83.5,466.5 L 63.5,471.5 L 45.5,492.5 L 35.5,523.5 L 34.5,558.5 L 35.5,523.5 L 45.5,493.5 L 64.5,471.5 L 87.5,469.5 L 113.5,497.5 L 135.5,565.5 L 378.5,601.5 L 389.5,516.5 L 406.5,487.5 L 446.5,459.5"/>
    <path d="M 119.5,320.5 L 103.5,328.5 L 74.5,386.5 L 49.5,412.5 L 50.5,424.5 L 40.5,429.5 L 30.5,483.5 L 31.5,574.5 L 67.5,660.5 L 35.5,664.5 L 67.5,660.5 L 81.5,670.5 L 57.5,646.5 L 44.5,606.5 L 45.5,561.5 L 55.5,523.5 L 70.5,503.5 L 87.5,499.5 L 111.5,527.5 L 91.5,500.5 L 77.5,499.5 L 65.5,507.5 L 48.5,544.5 L 44.5,606.5 L 30.5,561.5 L 31.5,469.5 L 40.5,430.5 L 51.5,424.5 L 51.5,410.5 L 73.5,392.5 L 120.5,331.5 L 120.5,320.5"/>
    <path d="M 79.5,518.5 L 63.5,535.5 L 70.5,562.5 L 58.5,551.5 L 65.5,553.5 L 63.5,544.5 L 59.5,549.5 L 61.5,537.5 L 54.5,573.5 L 56.5,558.5 L 78.5,578.5 L 58.5,568.5 L 80.5,580.5 L 62.5,567.5 L 65.5,563.5 L 80.5,576.5 L 66.5,533.5 L 76.5,522.5 L 87.5,521.5 L 65.5,530.5 L 87.5,518.5 L 88.5,551.5 L 97.5,527.5 L 104.5,536.5 L 98.5,533.5 L 85.5,557.5 L 85.5,542.5 L 88.5,558.5 L 100.5,533.5 L 108.5,554.5 L 99.5,564.5 L 108.5,554.5 L 110.5,560.5 L 84.5,574.5 L 108.5,563.5 L 109.5,550.5 L 111.5,566.5 L 93.5,576.5 L 111.5,566.5 L 109.5,574.5 L 94.5,580.5 L 110.5,605.5 L 103.5,632.5 L 93.5,643.5 L 90.5,630.5 L 92.5,644.5 L 106.5,627.5 L 110.5,605.5 L 94.5,581.5 L 112.5,576.5 L 113.5,566.5 L 99.5,527.5 L 87.5,548.5 L 89.5,519.5 L 80.5,518.5"/>
    <path d="M 458.5,525.5 L 430.5,537.5 L 407.5,568.5 L 400.5,594.5 L 404.5,635.5 L 446.5,627.5 L 454.5,619.5 L 406.5,627.5 L 402.5,594.5 L 408.5,572.5 L 403.5,588.5 L 411.5,562.5 L 440.5,585.5 L 409.5,570.5 L 440.5,586.5 L 418.5,566.5 L 424.5,567.5 L 427.5,558.5 L 421.5,553.5 L 422.5,566.5 L 411.5,561.5 L 424.5,544.5 L 443.5,587.5 L 456.5,594.5 L 445.5,581.5 L 431.5,541.5 L 451.5,529.5 L 478.5,528.5 L 475.5,570.5 L 480.5,529.5 L 455.5,528.5 L 431.5,540.5 L 455.5,594.5 L 443.5,586.5 L 424.5,544.5 L 453.5,526.5 L 483.5,527.5 L 477.5,568.5 L 484.5,528.5 L 459.5,525.5"/>
    <path d="M 461.5,620.5 L 429.5,661.5 L 421.5,659.5 L 428.5,660.5 L 422.5,662.5 L 436.5,678.5 L 463.5,688.5 L 472.5,629.5 L 476.5,639.5 L 469.5,690.5 L 438.5,682.5 L 414.5,657.5 L 440.5,630.5 L 415.5,656.5 L 405.5,638.5 L 428.5,675.5 L 448.5,687.5 L 470.5,690.5 L 476.5,639.5 L 492.5,681.5 L 500.5,678.5 L 496.5,679.5 L 499.5,671.5 L 483.5,636.5 L 502.5,674.5 L 479.5,622.5 L 499.5,672.5 L 493.5,675.5 L 496.5,681.5 L 472.5,628.5 L 462.5,688.5 L 427.5,669.5 L 462.5,620.5"/>
    <path d="M 957.5,607.5 L 955.5,612.5 L 962.5,608.5 L 956.5,619.5 L 941.5,621.5 L 910.5,614.5 L 773.5,623.5 L 738.5,635.5 L 703.5,635.5 L 672.5,625.5 L 656.5,641.5 L 579.5,635.5 L 655.5,640.5 L 645.5,653.5 L 658.5,640.5 L 695.5,642.5 L 660.5,640.5 L 672.5,625.5 L 703.5,635.5 L 738.5,635.5 L 773.5,623.5 L 910.5,614.5 L 927.5,621.5 L 959.5,617.5 L 963.5,607.5 L 958.5,607.5"/>
    <path d="M 540.5,440.5 L 785.5,454.5 L 805.5,462.5 L 864.5,461.5 L 873.5,453.5 L 938.5,448.5 L 930.5,451.5 L 941.5,447.5 L 944.5,451.5 L 933.5,458.5 L 947.5,457.5 L 948.5,461.5 L 922.5,492.5 L 733.5,497.5 L 718.5,494.5 L 683.5,473.5 L 583.5,460.5 L 567.5,464.5 L 546.5,444.5 L 549.5,442.5 L 541.5,441.5"/>
    <path d="M 56.5,568.5 L 57.5,601.5 L 79.5,592.5 L 57.5,608.5 L 53.5,575.5 L 56.5,608.5 L 61.5,611.5 L 61.5,606.5 L 74.5,601.5 L 65.5,615.5 L 65.5,609.5 L 59.5,615.5 L 61.5,627.5 L 74.5,645.5 L 86.5,647.5 L 88.5,615.5 L 86.5,646.5 L 78.5,646.5 L 83.5,645.5 L 89.5,595.5 L 82.5,645.5 L 70.5,637.5 L 73.5,631.5 L 68.5,635.5 L 82.5,610.5 L 67.5,632.5 L 83.5,595.5 L 65.5,626.5 L 74.5,608.5 L 67.5,633.5 L 76.5,646.5 L 63.5,631.5 L 59.5,616.5 L 67.5,615.5 L 63.5,626.5 L 79.5,591.5 L 58.5,602.5 L 56.5,569.5"/>
    <path d="M 889.5,645.5 L 870.5,647.5 L 837.5,664.5 L 813.5,663.5 L 794.5,654.5 L 678.5,661.5 L 585.5,660.5 L 577.5,675.5 L 586.5,660.5 L 762.5,656.5 L 790.5,680.5 L 732.5,675.5 L 783.5,678.5 L 799.5,683.5 L 764.5,657.5 L 793.5,654.5 L 813.5,663.5 L 837.5,664.5 L 871.5,647.5 L 890.5,645.5"/>
    <path d="M 487.5,528.5 L 504.5,538.5 L 486.5,556.5 L 474.5,576.5 L 474.5,587.5 L 508.5,546.5 L 526.5,571.5 L 533.5,600.5 L 528.5,593.5 L 529.5,602.5 L 504.5,602.5 L 514.5,602.5 L 510.5,600.5 L 517.5,597.5 L 524.5,600.5 L 517.5,597.5 L 488.5,603.5 L 503.5,601.5 L 504.5,606.5 L 495.5,606.5 L 533.5,601.5 L 526.5,571.5 L 509.5,546.5 L 478.5,577.5 L 474.5,587.5 L 474.5,576.5 L 504.5,539.5 L 528.5,570.5 L 535.5,604.5 L 499.5,608.5 L 535.5,605.5 L 532.5,581.5 L 522.5,558.5 L 503.5,536.5 L 488.5,528.5"/>
    <path d="M 138.5,571.5 L 156.5,588.5 L 362.5,617.5 L 214.5,597.5 L 215.5,586.5 L 224.5,585.5 L 345.5,604.5 L 362.5,613.5 L 345.5,604.5 L 139.5,571.5"/>
    <path d="M 487.5,607.5 L 487.5,612.5 L 494.5,613.5 L 529.5,638.5 L 519.5,659.5 L 502.5,677.5 L 518.5,661.5 L 529.5,638.5 L 486.5,609.5 L 493.5,607.5 L 533.5,632.5 L 517.5,666.5 L 491.5,686.5 L 476.5,645.5 L 487.5,677.5 L 478.5,679.5 L 476.5,664.5 L 474.5,671.5 L 476.5,665.5 L 477.5,681.5 L 487.5,679.5 L 492.5,686.5 L 508.5,676.5 L 519.5,664.5 L 533.5,631.5 L 519.5,622.5 L 525.5,624.5 L 522.5,620.5 L 518.5,622.5 L 503.5,611.5 L 488.5,607.5"/>
    <path d="M 442.5,433.5 L 378.5,442.5 L 249.5,441.5 L 249.5,449.5 L 237.5,457.5 L 225.5,455.5 L 219.5,446.5 L 245.5,446.5 L 219.5,445.5 L 218.5,449.5 L 226.5,456.5 L 237.5,457.5 L 249.5,450.5 L 249.5,441.5 L 378.5,442.5 L 378.5,467.5 L 380.5,441.5 L 381.5,447.5 L 382.5,441.5 L 446.5,433.5"/>
    <path d="M 960.5,487.5 L 946.5,496.5 L 945.5,524.5 L 953.5,543.5 L 945.5,524.5 L 946.5,519.5 L 952.5,520.5 L 963.5,569.5 L 952.5,519.5 L 945.5,517.5 L 946.5,514.5 L 946.5,497.5 L 957.5,491.5 L 959.5,514.5 L 953.5,517.5 L 955.5,523.5 L 955.5,518.5 L 960.5,516.5 L 960.5,551.5 L 961.5,507.5 L 960.5,516.5 L 957.5,491.5 L 960.5,490.5 L 960.5,503.5 L 961.5,487.5 L 962.5,563.5 L 961.5,487.5"/>
    <path d="M 925.5,632.5 L 758.5,644.5 L 744.5,650.5 L 642.5,656.5 L 744.5,650.5 L 758.5,644.5 L 925.5,632.5 L 933.5,634.5 L 926.5,632.5"/>
    <path d="M 135.5,608.5 L 381.5,634.5 L 365.5,630.5 L 381.5,633.5 L 326.5,630.5 L 136.5,608.5"/>
    <path d="M 188.5,627.5 L 183.5,631.5 L 164.5,632.5 L 157.5,648.5 L 143.5,664.5 L 155.5,652.5 L 165.5,632.5 L 183.5,631.5 L 189.5,627.5 L 384.5,647.5 L 189.5,627.5"/>
    <path d="M 331.5,358.5 L 294.5,366.5 L 279.5,374.5 L 278.5,379.5 L 296.5,379.5 L 278.5,378.5 L 280.5,374.5 L 294.5,366.5 L 316.5,360.5 L 341.5,358.5 L 354.5,364.5 L 362.5,373.5 L 308.5,374.5 L 362.5,373.5 L 364.5,379.5 L 296.5,376.5 L 364.5,380.5 L 363.5,373.5 L 355.5,364.5 L 345.5,359.5 L 332.5,358.5"/>
    <path d="M 924.5,562.5 L 887.5,564.5 L 924.5,562.5 L 944.5,564.5 L 958.5,587.5 L 969.5,614.5 L 969.5,622.5 L 960.5,634.5 L 930.5,641.5 L 919.5,657.5 L 894.5,678.5 L 865.5,689.5 L 885.5,683.5 L 904.5,672.5 L 919.5,658.5 L 932.5,640.5 L 961.5,634.5 L 967.5,627.5 L 969.5,614.5 L 950.5,570.5 L 942.5,563.5 L 925.5,562.5"/>
    <path d="M 265.5,294.5 L 305.5,294.5 L 323.5,299.5 L 338.5,307.5 L 383.5,347.5 L 418.5,388.5 L 413.5,386.5 L 359.5,327.5 L 323.5,302.5 L 300.5,296.5 L 278.5,295.5 L 202.5,304.5 L 238.5,296.5 L 264.5,294.5"/>
    <path d="M 966.5,622.5 L 951.5,627.5 L 711.5,643.5 L 951.5,627.5 L 965.5,623.5"/>
    <path d="M 262.5,292.5 L 301.5,291.5 L 316.5,294.5 L 335.5,302.5 L 371.5,331.5 L 425.5,392.5 L 420.5,390.5 L 370.5,333.5 L 346.5,312.5 L 326.5,300.5 L 298.5,293.5 L 266.5,293.5 L 225.5,297.5 L 261.5,292.5"/>
    <path d="M 163.5,540.5 L 146.5,546.5 L 142.5,553.5 L 311.5,581.5 L 337.5,582.5 L 366.5,578.5 L 360.5,571.5 L 337.5,565.5 L 188.5,540.5 L 164.5,540.5"/>
    <path d="M 876.5,577.5 L 738.5,585.5 L 724.5,588.5 L 749.5,585.5 L 749.5,589.5 L 729.5,590.5 L 750.5,588.5 L 753.5,590.5 L 747.5,592.5 L 725.5,593.5 L 753.5,591.5 L 750.5,586.5 L 754.5,584.5 L 847.5,579.5 L 863.5,578.5 L 876.5,577.5 L 890.5,579.5 L 877.5,577.5"/>
    <path d="M 217.5,546.5 L 342.5,566.5 L 357.5,570.5 L 366.5,577.5 L 348.5,570.5 L 301.5,562.5 L 356.5,572.5 L 363.5,578.5 L 321.5,582.5 L 215.5,566.5 L 217.5,547.5"/>
    <path d="M 330.5,645.5 L 155.5,655.5 L 294.5,646.5 L 358.5,645.5 L 382.5,648.5 L 331.5,645.5"/>
    <path d="M 594.5,495.5 L 589.5,519.5 L 585.5,559.5 L 584.5,596.5 L 589.5,594.5 L 593.5,597.5 L 589.5,594.5 L 598.5,530.5 L 678.5,529.5 L 687.5,526.5 L 702.5,513.5 L 712.5,517.5 L 687.5,502.5 L 595.5,495.5"/>
    <path d="M 451.5,475.5 L 433.5,480.5 L 423.5,486.5 L 406.5,504.5 L 394.5,530.5 L 401.5,513.5 L 414.5,495.5 L 430.5,482.5 L 451.5,475.5 L 470.5,477.5 L 488.5,486.5 L 500.5,496.5 L 502.5,504.5 L 494.5,502.5 L 500.5,505.5 L 496.5,507.5 L 480.5,502.5 L 497.5,507.5 L 508.5,516.5 L 500.5,508.5 L 504.5,509.5 L 498.5,507.5 L 503.5,505.5 L 500.5,495.5 L 489.5,486.5 L 470.5,477.5 L 452.5,475.5"/>
    <path d="M 543.5,320.5 L 541.5,324.5 L 543.5,320.5 L 547.5,322.5 L 544.5,334.5 L 568.5,382.5 L 661.5,382.5 L 694.5,384.5 L 661.5,382.5 L 569.5,382.5 L 544.5,333.5 L 547.5,327.5 L 547.5,321.5 L 544.5,320.5"/>
    <path d="M 594.5,496.5 L 623.5,496.5 L 681.5,501.5 L 692.5,504.5 L 702.5,512.5 L 689.5,524.5 L 678.5,529.5 L 599.5,528.5 L 589.5,593.5 L 584.5,595.5 L 583.5,580.5 L 593.5,497.5"/>
    <path d="M 283.5,272.5 L 257.5,275.5 L 283.5,272.5 L 325.5,272.5 L 335.5,274.5 L 343.5,280.5 L 334.5,282.5 L 343.5,281.5 L 333.5,284.5 L 323.5,281.5 L 328.5,280.5 L 315.5,278.5 L 287.5,278.5 L 315.5,278.5 L 299.5,280.5 L 323.5,279.5 L 317.5,281.5 L 344.5,284.5 L 343.5,279.5 L 331.5,273.5 L 284.5,272.5"/>
    <path d="M 770.5,397.5 L 773.5,398.5 L 766.5,398.5 L 811.5,413.5 L 833.5,425.5 L 844.5,434.5 L 834.5,425.5 L 814.5,414.5 L 772.5,399.5 L 780.5,399.5 L 815.5,411.5 L 830.5,419.5 L 851.5,434.5 L 820.5,413.5 L 771.5,397.5"/>
    <path d="M 246.5,277.5 L 249.5,278.5 L 241.5,278.5 L 244.5,279.5 L 185.5,292.5 L 164.5,299.5 L 154.5,306.5 L 123.5,318.5 L 152.5,307.5 L 158.5,303.5 L 194.5,292.5 L 238.5,282.5 L 272.5,278.5 L 258.5,277.5 L 264.5,278.5 L 257.5,279.5 L 247.5,277.5"/>
    <path d="M 544.5,317.5 L 580.5,322.5 L 615.5,334.5 L 681.5,369.5 L 690.5,375.5 L 694.5,382.5 L 691.5,376.5 L 682.5,369.5 L 620.5,336.5 L 580.5,322.5 L 545.5,318.5"/>
    <path d="M 99.5,429.5 L 97.5,441.5 L 98.5,472.5 L 102.5,476.5 L 116.5,471.5 L 131.5,469.5 L 167.5,468.5 L 211.5,470.5 L 150.5,468.5 L 121.5,470.5 L 102.5,475.5 L 98.5,471.5 L 97.5,441.5 L 99.5,447.5 L 99.5,430.5"/>
    <path d="M 31.5,669.5 L 48.5,671.5 L 51.5,673.5 L 83.5,674.5 L 128.5,675.5 L 140.5,674.5 L 146.5,677.5 L 153.5,675.5 L 170.5,678.5 L 175.5,679.5 L 179.5,679.5 L 175.5,679.5 L 171.5,676.5 L 166.5,678.5 L 153.5,675.5 L 148.5,676.5 L 128.5,675.5 L 89.5,672.5 L 74.5,674.5 L 32.5,670.5"/>
    <path d="M 453.5,496.5 L 450.5,500.5 L 443.5,500.5 L 420.5,513.5 L 404.5,529.5 L 389.5,554.5 L 381.5,583.5 L 386.5,562.5 L 388.5,559.5 L 389.5,562.5 L 384.5,579.5 L 389.5,560.5 L 396.5,547.5 L 393.5,551.5 L 404.5,530.5 L 421.5,513.5 L 443.5,500.5 L 451.5,500.5 L 454.5,496.5"/>
    <path d="M 634.5,313.5 L 691.5,343.5 L 757.5,385.5 L 697.5,346.5 L 635.5,313.5"/>
    <path d="M 873.5,527.5 L 785.5,530.5 L 783.5,563.5 L 900.5,560.5 L 899.5,527.5 L 874.5,527.5"/>
    <path d="M 73.5,481.5 L 61.5,486.5 L 51.5,497.5 L 43.5,515.5 L 39.5,540.5 L 43.5,515.5 L 51.5,498.5 L 62.5,486.5 L 73.5,481.5 L 80.5,481.5 L 89.5,485.5 L 101.5,496.5 L 110.5,509.5 L 118.5,529.5 L 115.5,519.5 L 101.5,495.5 L 90.5,485.5 L 84.5,482.5 L 74.5,481.5"/>
    <path d="M 828.5,537.5 L 827.5,554.5 L 835.5,554.5 L 828.5,554.5 L 826.5,539.5 L 834.5,538.5 L 828.5,540.5 L 828.5,544.5 L 833.5,545.5 L 828.5,547.5 L 829.5,552.5 L 834.5,552.5 L 830.5,552.5 L 829.5,547.5 L 834.5,546.5 L 829.5,544.5 L 828.5,541.5 L 834.5,539.5 L 836.5,552.5 L 836.5,538.5 L 838.5,554.5 L 842.5,554.5 L 842.5,545.5 L 846.5,553.5 L 851.5,554.5 L 853.5,550.5 L 850.5,554.5 L 845.5,551.5 L 845.5,544.5 L 848.5,541.5 L 853.5,543.5 L 847.5,541.5 L 845.5,544.5 L 843.5,541.5 L 840.5,542.5 L 839.5,554.5 L 838.5,537.5 L 829.5,537.5"/>
    <path d="M 872.5,528.5 L 899.5,528.5 L 899.5,560.5 L 785.5,565.5 L 783.5,532.5 L 871.5,528.5"/>
    <path d="M 358.5,296.5 L 392.5,324.5 L 421.5,353.5 L 451.5,388.5 L 421.5,352.5 L 393.5,324.5 L 369.5,304.5 L 372.5,302.5 L 369.5,304.5 L 359.5,297.5"/>
    <path d="M 571.5,449.5 L 581.5,454.5 L 654.5,461.5 L 700.5,463.5 L 696.5,458.5 L 572.5,449.5"/>
    <path d="M 571.5,450.5 L 580.5,449.5 L 627.5,454.5 L 696.5,458.5 L 700.5,462.5 L 683.5,463.5 L 581.5,454.5 L 574.5,453.5"/>
    <path d="M 384.5,713.5 L 403.5,716.5 L 409.5,719.5 L 420.5,719.5 L 426.5,722.5 L 444.5,724.5 L 461.5,723.5 L 473.5,726.5 L 500.5,727.5 L 473.5,726.5 L 461.5,723.5 L 444.5,724.5 L 385.5,714.5"/>
    <path d="M 730.5,604.5 L 728.5,608.5 L 750.5,606.5 L 731.5,609.5 L 728.5,612.5 L 729.5,616.5 L 719.5,616.5 L 719.5,612.5 L 717.5,624.5 L 706.5,625.5 L 717.5,624.5 L 720.5,626.5 L 700.5,628.5 L 720.5,627.5 L 717.5,624.5 L 719.5,619.5 L 736.5,618.5 L 735.5,615.5 L 730.5,614.5 L 733.5,609.5 L 751.5,608.5 L 731.5,607.5"/>
    <path d="M 144.5,321.5 L 149.5,322.5 L 139.5,330.5 L 125.5,350.5 L 111.5,375.5 L 109.5,384.5 L 131.5,392.5 L 127.5,394.5 L 122.5,393.5 L 125.5,392.5 L 118.5,392.5 L 121.5,391.5 L 116.5,392.5 L 109.5,387.5 L 105.5,383.5 L 106.5,380.5 L 107.5,373.5 L 109.5,369.5 L 138.5,327.5 L 144.5,322.5"/>
    <path d="M 468.5,530.5 L 465.5,572.5 L 468.5,593.5 L 463.5,590.5 L 459.5,599.5 L 464.5,591.5 L 466.5,594.5 L 461.5,600.5 L 465.5,596.5 L 472.5,597.5 L 466.5,596.5 L 480.5,593.5 L 468.5,593.5 L 469.5,588.5 L 470.5,592.5 L 468.5,581.5 L 470.5,545.5 L 469.5,530.5"/>
    <path d="M 420.5,700.5 L 435.5,711.5 L 457.5,720.5 L 480.5,723.5 L 504.5,723.5 L 510.5,726.5 L 513.5,724.5 L 523.5,724.5 L 513.5,724.5 L 510.5,726.5 L 504.5,723.5 L 480.5,723.5 L 457.5,720.5 L 441.5,714.5 L 421.5,700.5"/>
    <path d="M 530.5,398.5 L 547.5,399.5 L 592.5,407.5 L 637.5,420.5 L 592.5,407.5 L 547.5,399.5 L 531.5,398.5"/>
    <path d="M 64.5,426.5 L 57.5,427.5 L 43.5,444.5 L 41.5,449.5 L 57.5,428.5 L 64.5,426.5 L 86.5,426.5 L 96.5,426.5 L 129.5,435.5 L 96.5,426.5 L 65.5,426.5"/>
    <path d="M 96.5,450.5 L 95.5,469.5 L 83.5,463.5 L 70.5,463.5 L 56.5,471.5 L 49.5,480.5 L 44.5,472.5 L 41.5,455.5 L 43.5,468.5 L 47.5,479.5 L 50.5,480.5 L 57.5,471.5 L 70.5,463.5 L 83.5,463.5 L 96.5,470.5 L 96.5,451.5"/>
    <path d="M 278.5,313.5 L 272.5,324.5 L 267.5,350.5 L 265.5,373.5 L 266.5,395.5 L 277.5,395.5 L 265.5,394.5 L 265.5,373.5 L 272.5,324.5 L 279.5,314.5"/>
    <path d="M 534.5,333.5 L 540.5,347.5 L 551.5,375.5 L 558.5,375.5 L 558.5,371.5 L 544.5,343.5 L 559.5,374.5 L 552.5,375.5 L 534.5,335.5 L 538.5,333.5"/>
    <path d="M 400.5,594.5 L 402.5,615.5 L 405.5,627.5 L 442.5,623.5 L 451.5,617.5 L 454.5,618.5 L 445.5,627.5 L 405.5,635.5 L 400.5,618.5 L 400.5,595.5"/>
    <path d="M 138.5,572.5 L 178.5,579.5 L 210.5,583.5 L 213.5,585.5 L 211.5,594.5 L 213.5,588.5 L 214.5,593.5 L 212.5,596.5 L 156.5,588.5 L 149.5,584.5 L 139.5,573.5"/>
    <path d="M 236.5,281.5 L 244.5,281.5 L 194.5,292.5 L 163.5,303.5 L 160.5,302.5 L 167.5,298.5 L 200.5,288.5 L 235.5,281.5"/>
    <path d="M 882.5,686.5 L 933.5,691.5 L 952.5,694.5 L 965.5,694.5 L 952.5,694.5 L 947.5,692.5 L 923.5,691.5 L 916.5,689.5 L 912.5,690.5 L 909.5,688.5 L 903.5,689.5 L 883.5,686.5"/>
    <path d="M 119.5,321.5 L 120.5,330.5 L 88.5,367.5 L 75.5,387.5 L 101.5,343.5 L 101.5,332.5 L 104.5,328.5 L 118.5,321.5"/>
    <path d="M 162.5,541.5 L 188.5,540.5 L 214.5,544.5 L 215.5,549.5 L 212.5,564.5 L 209.5,565.5 L 142.5,552.5 L 152.5,543.5 L 161.5,541.5"/>
    <path d="M 180.5,314.5 L 176.5,320.5 L 167.5,347.5 L 157.5,391.5 L 167.5,347.5 L 176.5,320.5 L 181.5,314.5"/>
    <path d="M 603.5,668.5 L 609.5,672.5 L 630.5,672.5 L 645.5,672.5 L 654.5,675.5 L 659.5,675.5 L 672.5,674.5 L 662.5,675.5 L 651.5,674.5 L 645.5,672.5 L 633.5,672.5 L 609.5,672.5 L 604.5,668.5"/>
    <path d="M 164.5,319.5 L 160.5,323.5 L 146.5,347.5 L 127.5,388.5 L 146.5,348.5 L 160.5,324.5 L 165.5,319.5"/>
    <path d="M 156.5,324.5 L 141.5,348.5 L 123.5,387.5 L 142.5,347.5 L 155.5,325.5"/>
  </g>
</svg>