<?xml version="1.0" encoding="UTF-8"?>
<svg xmlns="http://www.w3.org/2000/svg" width="960" height="960" viewBox="0 0 960 960">
  <g fill="none" stroke="#000000" stroke-width="30" stroke-linecap="round" stroke-linejoin="round">
    <!-- Car body outline -->
    <path d="M 160 580 L 160 520 Q 160 490 180 470 L 260 370 Q 280 340 320 330 L 400 310 Q 440 300 480 300 L 580 310 Q 620 315 650 340 L 720 400 Q 740 420 770 430 L 810 440 Q 840 450 840 480 L 840 580"/>
    <!-- Underbody -->
    <path d="M 160 580 Q 160 610 190 620 L 280 620"/>
    <path d="M 410 620 L 560 620"/>
    <path d="M 690 620 Q 810 620 840 580"/>
    <!-- Windshield -->
    <path d="M 360 330 L 440 260 Q 460 245 490 245 L 540 250 Q 560 255 570 270 L 610 330"/>
    <!-- Front window divider -->
    <path d="M 510 250 L 500 330"/>
    <!-- Rear window -->
    <path d="M 270 370 L 340 330"/>
    <!-- Door line -->
    <path d="M 480 330 L 490 580"/>
    <!-- Door handle -->
    <path d="M 440 470 L 470 470"/>
    <!-- Front headlight -->
    <path d="M 790 440 Q 820 445 830 460 L 830 490 Q 830 500 820 505"/>
    <!-- Rear taillight -->
    <path d="M 180 470 L 170 490 Q 165 510 170 520"/>
    <!-- Front wheel -->
    <circle cx="640" cy="620" r="68"/>
    <circle cx="640" cy="620" r="30"/>
    <!-- Rear wheel -->
    <circle cx="330" cy="620" r="68"/>
    <circle cx="330" cy="620" r="30"/>
    <!-- Roof line detail -->
    <path d="M 310 310 Q 350 280 400 265"/>
    <!-- Side skirt -->
    <path d="M 200 580 L 800 580"/>
  </g>
</svg>