<svg xmlns="http://www.w3.org/2000/svg" width="1000" height="1000" viewBox="0 0 1000 1000">
  <g transform="translate(107.199,549.421) scale(139.336,-139.336)">
    <path d="M0.092,0.729 L0.331,0.729 L0.497,0.339 L0.664,0.729 L0.903,0.729 L0.903,0.000 L0.725,0.000 L0.725,0.533 L0.557,0.140 L0.438,0.140 L0.270,0.533 L0.270,0.000 L0.092,0.000 L0.092,0.729 Z M1.007,0.547 L1.182,0.547 L1.329,0.176 L1.454,0.547 L1.629,0.547 L1.399,-0.052 Q1.364,-0.143 1.318,-0.179 Q1.272,-0.216 1.196,-0.216 L1.095,-0.216 L1.095,-0.101 L1.150,-0.101 Q1.194,-0.101 1.214,-0.087 Q1.235,-0.073 1.246,-0.036 L1.251,-0.021 L1.007,0.547 Z M2.246,0.706 L2.246,0.552 Q2.186,0.579 2.129,0.592 Q2.072,0.606 2.021,0.606 Q1.954,0.606 1.921,0.587 Q1.889,0.569 1.889,0.530 Q1.889,0.500 1.911,0.484 Q1.933,0.468 1.990,0.456 L2.070,0.440 Q2.191,0.415 2.243,0.366 Q2.294,0.316 2.294,0.224 Q2.294,0.104 2.222,0.045 Q2.151,-0.014 2.004,-0.014 Q1.935,-0.014 1.865,-0.001 Q1.795,0.012 1.725,0.038 L1.725,0.197 Q1.795,0.160 1.860,0.141 Q1.925,0.122 1.986,0.122 Q2.047,0.122 2.080,0.143 Q2.113,0.163 2.113,0.201 Q2.113,0.235 2.091,0.254 Q2.068,0.273 2.002,0.287 L1.929,0.303 Q1.820,0.327 1.769,0.378 Q1.719,0.429 1.719,0.516 Q1.719,0.625 1.789,0.684 Q1.859,0.742 1.991,0.742 Q2.051,0.742 2.115,0.733 Q2.178,0.724 2.246,0.706 Z M1.921,0.796 L1.812,0.925 L1.899,0.925 L1.996,0.846 L2.093,0.925 L2.180,0.925 L2.071,0.796 L1.921,0.796 Z M2.459,0.729 L2.647,0.729 L2.647,0.463 L2.918,0.729 L3.136,0.729 L2.785,0.384 L3.172,0.000 L2.937,0.000 L2.647,0.287 L2.647,0.000 L2.459,0.000 L2.459,0.729 Z M3.522,0.606 Q3.436,0.606 3.389,0.542 Q3.341,0.479 3.341,0.364 Q3.341,0.249 3.389,0.185 Q3.436,0.122 3.522,0.122 Q3.608,0.122 3.656,0.185 Q3.703,0.249 3.703,0.364 Q3.703,0.479 3.656,0.542 Q3.608,0.606 3.522,0.606 Z M3.522,0.742 Q3.698,0.742 3.797,0.642 Q3.897,0.541 3.897,0.364 Q3.897,0.187 3.797,0.086 Q3.698,-0.014 3.522,-0.014 Q3.347,-0.014 3.247,0.086 Q3.147,0.187 3.147,0.364 Q3.147,0.541 3.247,0.642 Q3.347,0.742 3.522,0.742 Z M4.227,0.587 L4.227,0.142 L4.294,0.142 Q4.410,0.142 4.470,0.199 Q4.531,0.256 4.531,0.365 Q4.531,0.474 4.471,0.530 Q4.410,0.587 4.294,0.587 L4.227,0.587 Z M4.039,0.729 L4.237,0.729 Q4.403,0.729 4.485,0.705 Q4.566,0.682 4.624,0.625 Q4.675,0.576 4.700,0.511 Q4.725,0.447 4.725,0.365 Q4.725,0.283 4.700,0.218 Q4.675,0.153 4.624,0.104 Q4.565,0.047 4.483,0.024 Q4.401,0.000 4.237,0.000 L4.039,0.000 L4.039,0.729 Z M5.311,0.133 L5.018,0.133 L4.971,0.000 L4.782,0.000 L5.052,0.729 L5.276,0.729 L5.546,0.000 L5.357,0.000 L5.311,0.133 Z M5.064,0.268 L5.264,0.268 L5.164,0.558 L5.064,0.268 Z" fill="#000000"/>
  </g>
</svg>